<?xml version="1.0" encoding="utf-8"?>
<!-- Generator: Adobe Illustrator 22.0.1, SVG Export Plug-In . SVG Version: 6.00 Build 0)  -->
<svg version="1.1" id="Слой_1" xmlns:serif="http://www.serif.com/"
	 xmlns="http://www.w3.org/2000/svg" xmlns:xlink="http://www.w3.org/1999/xlink" x="0px" y="0px" viewBox="0 0 32 32"
	 style="enable-background:new 0 0 32 32;" xml:space="preserve">
<g id="Icons1" serif:id="Icons">
	<g id="Strike">
	</g>
	<g id="H1">
	</g>
	<g id="H2">
	</g>
	<g id="H3">
	</g>
	<g id="list-ul">
	</g>
	<g id="hamburger-1">
	</g>
	<g id="hamburger-2">
	</g>
	<g id="list-ol">
	</g>
	<g id="list-task">
	</g>
	<g id="trash">
	</g>
	<g id="vertical-menu">
	</g>
	<g id="horizontal-menu">
	</g>
	<g id="sidebar-2">
	</g>
	<g id="Pen">
	</g>
	<g id="Pen1" serif:id="Pen">
	</g>
	<g id="clock">
	</g>
	<g id="external-link">
	</g>
	<g id="hr">
	</g>
	<path id="codeblock" d="M19.4,29c2-0.4,3.5-1.2,4.5-2.2s1.5-2.3,1.5-4v-2.6c0-2.1,1.2-3.2,3.6-3.2V15c-2.4,0-3.6-1.1-3.6-3.2V9.1
		c0-1.6-0.5-2.9-1.5-3.9c-1-1-2.5-1.7-4.5-2.2l-0.6,1.5c2.3,0.6,3.5,2.1,3.5,4.6v2.7c0,2,0.9,3.4,2.8,4.2c-1.9,0.8-2.8,2.2-2.8,4.2
		V23c0,2.4-1.2,3.9-3.5,4.5L19.4,29L19.4,29z M12.6,29c-2-0.4-3.5-1.2-4.5-2.2c-1-1-1.5-2.3-1.5-4v-2.6C6.7,18,5.5,17,3.1,17V15
		c2.4,0,3.6-1.1,3.6-3.2V9.1c0-1.6,0.5-2.9,1.5-3.9c1-1,2.5-1.7,4.5-2.2l0.6,1.5c-2.3,0.6-3.5,2.1-3.5,4.6v2.7c0,2-0.9,3.4-2.8,4.2
		c1.9,0.8,2.8,2.2,2.8,4.2v2.7c0,2.4,1.2,3.9,3.5,4.5L12.6,29z"/>
	<g id="info">
	</g>
	<g id="warning">
	</g>
	<g id="plus-circle">
	</g>
	<g id="minus-circle">
	</g>
	<g id="vue">
	</g>
	<g id="cog">
	</g>
	<g id="logo">
	</g>
	<g id="radio-check">
	</g>
	<g id="eye-slash">
	</g>
	<g id="eye">
	</g>
	<g id="toggle-off">
	</g>
	<g id="shredder">
	</g>
	<g id="spinner--loading--dots-" serif:id="spinner [loading, dots]">
	</g>
	<g id="react">
	</g>
	<g id="check-selected">
	</g>
	<g id="turn-off">
	</g>
	<g id="code-block">
	</g>
	<g id="user">
	</g>
	<g id="coffee-bean">
	</g>
	<g id="coffee-beans">
		<g id="coffee-bean1" serif:id="coffee-bean">
		</g>
	</g>
	<g id="coffee-bean-filled">
	</g>
	<g id="coffee-beans-filled">
		<g id="coffee-bean2" serif:id="coffee-bean">
		</g>
	</g>
	<g id="clipboard">
	</g>
	<g id="clipboard-paste">
	</g>
	<g id="clipboard-copy">
	</g>
	<g id="Layer1">
	</g>
</g>
</svg>
